<mxfile host="app.diagrams.net" modified="2024-03-12T12:11:23.190Z" agent="Mozilla/5.0 (Windows NT 10.0; Win64; x64) AppleWebKit/537.36 (KHTML, like Gecko) Chrome/122.0.0.0 Safari/537.36 Edg/122.0.0.0" etag="5Im0YYmeD7BlJGAG1v1V" version="23.1.7" type="device">
  <diagram name="Page-1" id="0783ab3e-0a74-02c8-0abd-f7b4e66b4bec">
    <mxGraphModel dx="2636" dy="-693" grid="1" gridSize="10" guides="1" tooltips="1" connect="1" arrows="1" fold="1" page="1" pageScale="1" pageWidth="1200" pageHeight="1600" background="none" math="0" shadow="0">
      <root>
        <mxCell id="0" />
        <mxCell id="1" parent="0" />
        <mxCell id="jNMzOkflWiPmnUt8hGNs-3" value="Пользователь" style="shape=umlActor;verticalLabelPosition=bottom;verticalAlign=top;html=1;" vertex="1" parent="1">
          <mxGeometry x="-510" y="2465" width="60" height="85" as="geometry" />
        </mxCell>
        <mxCell id="jNMzOkflWiPmnUt8hGNs-4" value="Администратор" style="shape=umlActor;verticalLabelPosition=bottom;verticalAlign=top;html=1;" vertex="1" parent="1">
          <mxGeometry x="630" y="2680" width="40" height="70" as="geometry" />
        </mxCell>
        <mxCell id="jNMzOkflWiPmnUt8hGNs-12" value="" style="rounded=0;whiteSpace=wrap;html=1;" vertex="1" parent="1">
          <mxGeometry x="-400" y="2020" width="940" height="950" as="geometry" />
        </mxCell>
        <mxCell id="jNMzOkflWiPmnUt8hGNs-5" value="Вход в учетную запись" style="rounded=1;whiteSpace=wrap;html=1;shadow=0;comic=0;labelBackgroundColor=none;strokeWidth=1;fontFamily=Verdana;fontSize=12;align=center;arcSize=50;" vertex="1" parent="1">
          <mxGeometry x="60" y="2380" width="160" height="70" as="geometry" />
        </mxCell>
        <mxCell id="jNMzOkflWiPmnUt8hGNs-13" value="" style="endArrow=none;html=1;rounded=0;entryX=0;entryY=0.5;entryDx=0;entryDy=0;" edge="1" parent="1" target="jNMzOkflWiPmnUt8hGNs-5">
          <mxGeometry width="50" height="50" relative="1" as="geometry">
            <mxPoint x="-420" y="2540" as="sourcePoint" />
            <mxPoint x="-325" y="2506.5" as="targetPoint" />
          </mxGeometry>
        </mxCell>
        <mxCell id="jNMzOkflWiPmnUt8hGNs-14" value="" style="endArrow=none;html=1;rounded=0;" edge="1" parent="1" source="jNMzOkflWiPmnUt8hGNs-5">
          <mxGeometry width="50" height="50" relative="1" as="geometry">
            <mxPoint x="210" y="2514.25" as="sourcePoint" />
            <mxPoint x="600" y="2740" as="targetPoint" />
          </mxGeometry>
        </mxCell>
        <mxCell id="jNMzOkflWiPmnUt8hGNs-27" value="Редактировать профиль" style="rounded=1;whiteSpace=wrap;html=1;shadow=0;comic=0;labelBackgroundColor=none;strokeWidth=1;fontFamily=Verdana;fontSize=12;align=center;arcSize=50;" vertex="1" parent="1">
          <mxGeometry x="210" y="2180" width="160" height="40" as="geometry" />
        </mxCell>
        <mxCell id="jNMzOkflWiPmnUt8hGNs-28" value="Изменить ФИО" style="rounded=1;whiteSpace=wrap;html=1;shadow=0;comic=0;labelBackgroundColor=none;strokeWidth=1;fontFamily=Verdana;fontSize=12;align=center;arcSize=50;" vertex="1" parent="1">
          <mxGeometry x="380" y="2090" width="140" height="30" as="geometry" />
        </mxCell>
        <mxCell id="jNMzOkflWiPmnUt8hGNs-29" value="Изменить почту" style="rounded=1;whiteSpace=wrap;html=1;shadow=0;comic=0;labelBackgroundColor=none;strokeWidth=1;fontFamily=Verdana;fontSize=12;align=center;arcSize=50;" vertex="1" parent="1">
          <mxGeometry x="292.5" y="2040" width="155" height="30" as="geometry" />
        </mxCell>
        <mxCell id="jNMzOkflWiPmnUt8hGNs-30" value="Изменить пароль" style="rounded=1;whiteSpace=wrap;html=1;shadow=0;comic=0;labelBackgroundColor=none;strokeWidth=1;fontFamily=Verdana;fontSize=12;align=center;arcSize=50;" vertex="1" parent="1">
          <mxGeometry x="160" y="2060" width="120" height="30" as="geometry" />
        </mxCell>
        <mxCell id="jNMzOkflWiPmnUt8hGNs-31" value="&amp;lt;&amp;lt;Extend&amp;gt;&amp;gt;" style="endArrow=open;endSize=12;dashed=1;html=1;rounded=0;exitX=0.75;exitY=1;exitDx=0;exitDy=0;entryX=0.317;entryY=-0.025;entryDx=0;entryDy=0;entryPerimeter=0;" edge="1" parent="1" source="jNMzOkflWiPmnUt8hGNs-30" target="jNMzOkflWiPmnUt8hGNs-27">
          <mxGeometry x="-0.0174" width="160" relative="1" as="geometry">
            <mxPoint x="560" y="2444" as="sourcePoint" />
            <mxPoint x="-180" y="2260" as="targetPoint" />
            <Array as="points" />
            <mxPoint as="offset" />
          </mxGeometry>
        </mxCell>
        <mxCell id="jNMzOkflWiPmnUt8hGNs-32" value="&amp;lt;&amp;lt;Extend&amp;gt;&amp;gt;" style="endArrow=open;endSize=12;dashed=1;html=1;rounded=0;exitX=0.402;exitY=0.967;exitDx=0;exitDy=0;exitPerimeter=0;" edge="1" parent="1" source="jNMzOkflWiPmnUt8hGNs-29" target="jNMzOkflWiPmnUt8hGNs-27">
          <mxGeometry width="160" relative="1" as="geometry">
            <mxPoint x="-230" y="2459" as="sourcePoint" />
            <mxPoint x="-90" y="2300" as="targetPoint" />
            <Array as="points" />
          </mxGeometry>
        </mxCell>
        <mxCell id="jNMzOkflWiPmnUt8hGNs-33" value="&amp;lt;&amp;lt;Extend&amp;gt;&amp;gt;" style="endArrow=open;endSize=12;dashed=1;html=1;rounded=0;exitX=0.25;exitY=1;exitDx=0;exitDy=0;entryX=0.935;entryY=-0.051;entryDx=0;entryDy=0;entryPerimeter=0;" edge="1" parent="1" source="jNMzOkflWiPmnUt8hGNs-28" target="jNMzOkflWiPmnUt8hGNs-27">
          <mxGeometry width="160" relative="1" as="geometry">
            <mxPoint x="-240" y="2374" as="sourcePoint" />
            <mxPoint x="-135" y="2300" as="targetPoint" />
            <Array as="points" />
          </mxGeometry>
        </mxCell>
        <mxCell id="jNMzOkflWiPmnUt8hGNs-37" value="" style="endArrow=none;html=1;rounded=0;entryX=0.25;entryY=1;entryDx=0;entryDy=0;" edge="1" parent="1" target="jNMzOkflWiPmnUt8hGNs-27">
          <mxGeometry width="50" height="50" relative="1" as="geometry">
            <mxPoint x="-420" y="2530" as="sourcePoint" />
            <mxPoint y="2310" as="targetPoint" />
          </mxGeometry>
        </mxCell>
        <mxCell id="jNMzOkflWiPmnUt8hGNs-38" value="Просмотр номеров" style="rounded=1;whiteSpace=wrap;html=1;shadow=0;comic=0;labelBackgroundColor=none;strokeWidth=1;fontFamily=Verdana;fontSize=12;align=center;arcSize=50;" vertex="1" parent="1">
          <mxGeometry x="-360" y="2090" width="140" height="50" as="geometry" />
        </mxCell>
        <mxCell id="jNMzOkflWiPmnUt8hGNs-39" value="" style="endArrow=none;html=1;rounded=0;entryX=0;entryY=0.75;entryDx=0;entryDy=0;" edge="1" parent="1" target="jNMzOkflWiPmnUt8hGNs-38">
          <mxGeometry width="50" height="50" relative="1" as="geometry">
            <mxPoint x="-450" y="2440" as="sourcePoint" />
            <mxPoint x="110" y="2270" as="targetPoint" />
          </mxGeometry>
        </mxCell>
        <mxCell id="jNMzOkflWiPmnUt8hGNs-41" value="Просмотр отзывов на номера" style="rounded=1;whiteSpace=wrap;html=1;shadow=0;comic=0;labelBackgroundColor=none;strokeWidth=1;fontFamily=Verdana;fontSize=12;align=center;arcSize=50;" vertex="1" parent="1">
          <mxGeometry x="-345" y="2200" width="140" height="60" as="geometry" />
        </mxCell>
        <mxCell id="jNMzOkflWiPmnUt8hGNs-42" value="" style="endArrow=none;html=1;rounded=0;entryX=0;entryY=0.5;entryDx=0;entryDy=0;" edge="1" parent="1" target="jNMzOkflWiPmnUt8hGNs-41">
          <mxGeometry width="50" height="50" relative="1" as="geometry">
            <mxPoint x="-440" y="2450" as="sourcePoint" />
            <mxPoint x="110" y="2400" as="targetPoint" />
          </mxGeometry>
        </mxCell>
        <mxCell id="jNMzOkflWiPmnUt8hGNs-43" value="просмотр&lt;br/&gt;условий бронирования и правил отмены" style="rounded=1;whiteSpace=wrap;html=1;shadow=0;comic=0;labelBackgroundColor=none;strokeWidth=1;fontFamily=Verdana;fontSize=12;align=center;arcSize=50;" vertex="1" parent="1">
          <mxGeometry x="-345" y="2720" width="150" height="70" as="geometry" />
        </mxCell>
        <mxCell id="jNMzOkflWiPmnUt8hGNs-44" value="" style="endArrow=none;html=1;rounded=0;" edge="1" parent="1" target="jNMzOkflWiPmnUt8hGNs-43">
          <mxGeometry width="50" height="50" relative="1" as="geometry">
            <mxPoint x="-450" y="2590" as="sourcePoint" />
            <mxPoint x="110" y="2250" as="targetPoint" />
          </mxGeometry>
        </mxCell>
        <mxCell id="jNMzOkflWiPmnUt8hGNs-47" value="Забронировать номер" style="rounded=1;whiteSpace=wrap;html=1;shadow=0;comic=0;labelBackgroundColor=none;strokeWidth=1;fontFamily=Verdana;fontSize=12;align=center;arcSize=50;" vertex="1" parent="1">
          <mxGeometry x="-160" y="2135" width="150" height="50" as="geometry" />
        </mxCell>
        <mxCell id="jNMzOkflWiPmnUt8hGNs-48" value="" style="endArrow=none;html=1;rounded=0;" edge="1" parent="1" target="jNMzOkflWiPmnUt8hGNs-47">
          <mxGeometry width="50" height="50" relative="1" as="geometry">
            <mxPoint x="-420" y="2480" as="sourcePoint" />
            <mxPoint x="70" y="2110" as="targetPoint" />
          </mxGeometry>
        </mxCell>
        <mxCell id="jNMzOkflWiPmnUt8hGNs-49" value="Оплатить номер" style="rounded=1;whiteSpace=wrap;html=1;shadow=0;comic=0;labelBackgroundColor=none;strokeWidth=1;fontFamily=Verdana;fontSize=12;align=center;arcSize=50;" vertex="1" parent="1">
          <mxGeometry x="-190" y="2040" width="130" height="50" as="geometry" />
        </mxCell>
        <mxCell id="jNMzOkflWiPmnUt8hGNs-50" value="&amp;lt;&amp;lt;Include&amp;gt;&amp;gt;" style="endArrow=open;endSize=12;dashed=1;html=1;rounded=0;" edge="1" parent="1" source="jNMzOkflWiPmnUt8hGNs-47" target="jNMzOkflWiPmnUt8hGNs-55">
          <mxGeometry width="160" relative="1" as="geometry">
            <mxPoint x="18" y="2120" as="sourcePoint" />
            <mxPoint x="10" y="2183" as="targetPoint" />
            <Array as="points" />
          </mxGeometry>
        </mxCell>
        <mxCell id="jNMzOkflWiPmnUt8hGNs-51" value="Оценить номер" style="rounded=1;whiteSpace=wrap;html=1;shadow=0;comic=0;labelBackgroundColor=none;strokeWidth=1;fontFamily=Verdana;fontSize=12;align=center;arcSize=50;" vertex="1" parent="1">
          <mxGeometry x="-120" y="2220" width="120" height="40" as="geometry" />
        </mxCell>
        <mxCell id="jNMzOkflWiPmnUt8hGNs-52" value="" style="endArrow=none;html=1;rounded=0;entryX=0.093;entryY=0.89;entryDx=0;entryDy=0;entryPerimeter=0;" edge="1" parent="1" target="jNMzOkflWiPmnUt8hGNs-51">
          <mxGeometry width="50" height="50" relative="1" as="geometry">
            <mxPoint x="-420" y="2510" as="sourcePoint" />
            <mxPoint x="-210" y="2340" as="targetPoint" />
          </mxGeometry>
        </mxCell>
        <mxCell id="jNMzOkflWiPmnUt8hGNs-53" value="Оставить отзыв на номер" style="rounded=1;whiteSpace=wrap;html=1;shadow=0;comic=0;labelBackgroundColor=none;strokeWidth=1;fontFamily=Verdana;fontSize=12;align=center;arcSize=50;" vertex="1" parent="1">
          <mxGeometry x="30" y="2150" width="150" height="40" as="geometry" />
        </mxCell>
        <mxCell id="jNMzOkflWiPmnUt8hGNs-54" value="&amp;lt;&amp;lt;Extend&amp;gt;&amp;gt;" style="endArrow=open;endSize=12;dashed=1;html=1;rounded=0;exitX=0.5;exitY=1;exitDx=0;exitDy=0;entryX=1;entryY=0.25;entryDx=0;entryDy=0;" edge="1" parent="1" source="jNMzOkflWiPmnUt8hGNs-53" target="jNMzOkflWiPmnUt8hGNs-51">
          <mxGeometry width="160" relative="1" as="geometry">
            <mxPoint x="100" y="2210" as="sourcePoint" />
            <mxPoint y="2140" as="targetPoint" />
          </mxGeometry>
        </mxCell>
        <mxCell id="jNMzOkflWiPmnUt8hGNs-55" value="Выбрать валюту для оплаты" style="rounded=1;whiteSpace=wrap;html=1;shadow=0;comic=0;labelBackgroundColor=none;strokeWidth=1;fontFamily=Verdana;fontSize=12;align=center;arcSize=50;" vertex="1" parent="1">
          <mxGeometry x="20" y="2050" width="120" height="40" as="geometry" />
        </mxCell>
        <mxCell id="jNMzOkflWiPmnUt8hGNs-58" value="&amp;lt;&amp;lt;Include&amp;gt;&amp;gt;" style="endArrow=open;endSize=12;dashed=1;html=1;rounded=0;" edge="1" parent="1" source="jNMzOkflWiPmnUt8hGNs-55" target="jNMzOkflWiPmnUt8hGNs-49">
          <mxGeometry width="160" relative="1" as="geometry">
            <mxPoint x="-30" y="2145" as="sourcePoint" />
            <mxPoint x="34" y="2110" as="targetPoint" />
            <Array as="points" />
          </mxGeometry>
        </mxCell>
        <mxCell id="jNMzOkflWiPmnUt8hGNs-59" value="Сменить язык просмотра сайта" style="rounded=1;whiteSpace=wrap;html=1;shadow=0;comic=0;labelBackgroundColor=none;strokeWidth=1;fontFamily=Verdana;fontSize=12;align=center;arcSize=50;" vertex="1" parent="1">
          <mxGeometry x="-120" y="2290" width="120" height="40" as="geometry" />
        </mxCell>
        <mxCell id="jNMzOkflWiPmnUt8hGNs-60" value="" style="endArrow=none;html=1;rounded=0;entryX=0.062;entryY=0.865;entryDx=0;entryDy=0;entryPerimeter=0;" edge="1" parent="1" target="jNMzOkflWiPmnUt8hGNs-59">
          <mxGeometry width="50" height="50" relative="1" as="geometry">
            <mxPoint x="-420" y="2520" as="sourcePoint" />
            <mxPoint x="10" y="2300" as="targetPoint" />
          </mxGeometry>
        </mxCell>
        <mxCell id="jNMzOkflWiPmnUt8hGNs-61" value="Поменять статус клиента" style="rounded=1;whiteSpace=wrap;html=1;shadow=0;comic=0;labelBackgroundColor=none;strokeWidth=1;fontFamily=Verdana;fontSize=12;align=center;arcSize=50;" vertex="1" parent="1">
          <mxGeometry x="320" y="2450" width="165" height="60" as="geometry" />
        </mxCell>
        <mxCell id="jNMzOkflWiPmnUt8hGNs-62" value="" style="endArrow=none;html=1;rounded=0;exitX=0.641;exitY=1.034;exitDx=0;exitDy=0;exitPerimeter=0;" edge="1" parent="1" source="jNMzOkflWiPmnUt8hGNs-61">
          <mxGeometry width="50" height="50" relative="1" as="geometry">
            <mxPoint x="90" y="2660" as="sourcePoint" />
            <mxPoint x="590" y="2700" as="targetPoint" />
          </mxGeometry>
        </mxCell>
        <mxCell id="jNMzOkflWiPmnUt8hGNs-63" value="Удалить отзыв" style="rounded=1;whiteSpace=wrap;html=1;shadow=0;comic=0;labelBackgroundColor=none;strokeWidth=1;fontFamily=Verdana;fontSize=12;align=center;arcSize=50;" vertex="1" parent="1">
          <mxGeometry x="90" y="2890" width="130" height="50" as="geometry" />
        </mxCell>
        <mxCell id="jNMzOkflWiPmnUt8hGNs-64" value="" style="endArrow=none;html=1;rounded=0;exitX=0.928;exitY=0.171;exitDx=0;exitDy=0;exitPerimeter=0;" edge="1" parent="1" source="jNMzOkflWiPmnUt8hGNs-63">
          <mxGeometry width="50" height="50" relative="1" as="geometry">
            <mxPoint x="230" y="2970" as="sourcePoint" />
            <mxPoint x="580" y="2760" as="targetPoint" />
          </mxGeometry>
        </mxCell>
        <mxCell id="jNMzOkflWiPmnUt8hGNs-65" value="Блокировка пользователя" style="rounded=1;whiteSpace=wrap;html=1;shadow=0;comic=0;labelBackgroundColor=none;strokeWidth=1;fontFamily=Verdana;fontSize=12;align=center;arcSize=50;" vertex="1" parent="1">
          <mxGeometry x="-170" y="2910" width="150" height="40" as="geometry" />
        </mxCell>
        <mxCell id="jNMzOkflWiPmnUt8hGNs-66" value="&amp;lt;&amp;lt;Extend&amp;gt;&amp;gt;" style="endArrow=open;endSize=12;dashed=1;html=1;rounded=0;" edge="1" parent="1" source="jNMzOkflWiPmnUt8hGNs-65" target="jNMzOkflWiPmnUt8hGNs-63">
          <mxGeometry width="160" relative="1" as="geometry">
            <mxPoint x="-55" y="2860" as="sourcePoint" />
            <mxPoint x="-160" y="2801" as="targetPoint" />
          </mxGeometry>
        </mxCell>
        <mxCell id="jNMzOkflWiPmnUt8hGNs-67" value="Добавить номер" style="rounded=1;whiteSpace=wrap;html=1;shadow=0;comic=0;labelBackgroundColor=none;strokeWidth=1;fontFamily=Verdana;fontSize=12;align=center;arcSize=50;" vertex="1" parent="1">
          <mxGeometry x="220" y="2720" width="140" height="60" as="geometry" />
        </mxCell>
        <mxCell id="jNMzOkflWiPmnUt8hGNs-68" value="" style="endArrow=none;html=1;rounded=0;" edge="1" parent="1" source="jNMzOkflWiPmnUt8hGNs-67">
          <mxGeometry width="50" height="50" relative="1" as="geometry">
            <mxPoint x="300" y="2770" as="sourcePoint" />
            <mxPoint x="570" y="2750" as="targetPoint" />
          </mxGeometry>
        </mxCell>
        <mxCell id="jNMzOkflWiPmnUt8hGNs-69" value="Добавить описание к номеру" style="rounded=1;whiteSpace=wrap;html=1;shadow=0;comic=0;labelBackgroundColor=none;strokeWidth=1;fontFamily=Verdana;fontSize=12;align=center;arcSize=50;" vertex="1" parent="1">
          <mxGeometry x="40" y="2620" width="130" height="60" as="geometry" />
        </mxCell>
        <mxCell id="jNMzOkflWiPmnUt8hGNs-70" value="Добавить картинки" style="rounded=1;whiteSpace=wrap;html=1;shadow=0;comic=0;labelBackgroundColor=none;strokeWidth=1;fontFamily=Verdana;fontSize=12;align=center;arcSize=50;" vertex="1" parent="1">
          <mxGeometry x="-100" y="2685" width="140" height="60" as="geometry" />
        </mxCell>
        <mxCell id="jNMzOkflWiPmnUt8hGNs-71" value="Добавить стоимость номера" style="rounded=1;whiteSpace=wrap;html=1;shadow=0;comic=0;labelBackgroundColor=none;strokeWidth=1;fontFamily=Verdana;fontSize=12;align=center;arcSize=50;" vertex="1" parent="1">
          <mxGeometry x="-90" y="2810" width="140" height="60" as="geometry" />
        </mxCell>
        <mxCell id="jNMzOkflWiPmnUt8hGNs-72" value="&amp;lt;&amp;lt;Include&amp;gt;&amp;gt;" style="endArrow=open;endSize=12;dashed=1;html=1;rounded=0;exitX=0.25;exitY=0;exitDx=0;exitDy=0;" edge="1" parent="1" source="jNMzOkflWiPmnUt8hGNs-67" target="jNMzOkflWiPmnUt8hGNs-69">
          <mxGeometry width="160" relative="1" as="geometry">
            <mxPoint x="185" y="2659" as="sourcePoint" />
            <mxPoint x="315" y="2660" as="targetPoint" />
            <Array as="points" />
          </mxGeometry>
        </mxCell>
        <mxCell id="jNMzOkflWiPmnUt8hGNs-73" value="&amp;lt;&amp;lt;Include&amp;gt;&amp;gt;" style="endArrow=open;endSize=12;dashed=1;html=1;rounded=0;" edge="1" parent="1" source="jNMzOkflWiPmnUt8hGNs-67" target="jNMzOkflWiPmnUt8hGNs-70">
          <mxGeometry width="160" relative="1" as="geometry">
            <mxPoint x="152" y="2800" as="sourcePoint" />
            <mxPoint x="80" y="2750" as="targetPoint" />
            <Array as="points" />
          </mxGeometry>
        </mxCell>
        <mxCell id="jNMzOkflWiPmnUt8hGNs-75" value="&amp;lt;&amp;lt;Include&amp;gt;&amp;gt;" style="endArrow=open;endSize=12;dashed=1;html=1;rounded=0;exitX=0.074;exitY=0.925;exitDx=0;exitDy=0;exitPerimeter=0;" edge="1" parent="1" source="jNMzOkflWiPmnUt8hGNs-67" target="jNMzOkflWiPmnUt8hGNs-71">
          <mxGeometry width="160" relative="1" as="geometry">
            <mxPoint x="180" y="2800" as="sourcePoint" />
            <mxPoint x="30" y="2780" as="targetPoint" />
            <Array as="points" />
          </mxGeometry>
        </mxCell>
        <mxCell id="jNMzOkflWiPmnUt8hGNs-76" value="Добавить в избранное" style="rounded=1;whiteSpace=wrap;html=1;shadow=0;comic=0;labelBackgroundColor=none;strokeWidth=1;fontFamily=Verdana;fontSize=12;align=center;arcSize=50;" vertex="1" parent="1">
          <mxGeometry x="-40" y="2490" width="140" height="50" as="geometry" />
        </mxCell>
        <mxCell id="jNMzOkflWiPmnUt8hGNs-77" value="Просмотр избранного" style="rounded=1;whiteSpace=wrap;html=1;shadow=0;comic=0;labelBackgroundColor=none;strokeWidth=1;fontFamily=Verdana;fontSize=12;align=center;arcSize=50;" vertex="1" parent="1">
          <mxGeometry x="-120" y="2550" width="140" height="50" as="geometry" />
        </mxCell>
        <mxCell id="jNMzOkflWiPmnUt8hGNs-78" value="" style="endArrow=none;html=1;rounded=0;" edge="1" parent="1" target="jNMzOkflWiPmnUt8hGNs-76">
          <mxGeometry width="50" height="50" relative="1" as="geometry">
            <mxPoint x="-430" y="2570" as="sourcePoint" />
            <mxPoint x="-20" y="2470" as="targetPoint" />
          </mxGeometry>
        </mxCell>
        <mxCell id="jNMzOkflWiPmnUt8hGNs-79" value="" style="endArrow=none;html=1;rounded=0;" edge="1" parent="1" target="jNMzOkflWiPmnUt8hGNs-77">
          <mxGeometry width="50" height="50" relative="1" as="geometry">
            <mxPoint x="-420" y="2580" as="sourcePoint" />
            <mxPoint x="-70" y="2537" as="targetPoint" />
          </mxGeometry>
        </mxCell>
        <mxCell id="jNMzOkflWiPmnUt8hGNs-80" value="Просмотр истории бронирований" style="rounded=1;whiteSpace=wrap;html=1;shadow=0;comic=0;labelBackgroundColor=none;strokeWidth=1;fontFamily=Verdana;fontSize=12;align=center;arcSize=50;" vertex="1" parent="1">
          <mxGeometry x="-260" y="2620" width="170" height="60" as="geometry" />
        </mxCell>
        <mxCell id="jNMzOkflWiPmnUt8hGNs-81" value="" style="endArrow=none;html=1;rounded=0;entryX=0;entryY=0.5;entryDx=0;entryDy=0;" edge="1" parent="1" target="jNMzOkflWiPmnUt8hGNs-80">
          <mxGeometry width="50" height="50" relative="1" as="geometry">
            <mxPoint x="-410" y="2590" as="sourcePoint" />
            <mxPoint x="-110" y="2586" as="targetPoint" />
          </mxGeometry>
        </mxCell>
        <mxCell id="jNMzOkflWiPmnUt8hGNs-82" value="Обновить/удалить описание/картинки" style="rounded=1;whiteSpace=wrap;html=1;shadow=0;comic=0;labelBackgroundColor=none;strokeWidth=1;fontFamily=Verdana;fontSize=12;align=center;arcSize=50;" vertex="1" parent="1">
          <mxGeometry x="220" y="2600" width="130" height="60" as="geometry" />
        </mxCell>
        <mxCell id="jNMzOkflWiPmnUt8hGNs-83" value="" style="endArrow=none;html=1;rounded=0;entryX=0.903;entryY=0.893;entryDx=0;entryDy=0;entryPerimeter=0;" edge="1" parent="1" target="jNMzOkflWiPmnUt8hGNs-82">
          <mxGeometry width="50" height="50" relative="1" as="geometry">
            <mxPoint x="570" y="2740" as="sourcePoint" />
            <mxPoint x="340" y="2780" as="targetPoint" />
          </mxGeometry>
        </mxCell>
      </root>
    </mxGraphModel>
  </diagram>
</mxfile>
